# xmcd
#
# Track frame offsets:
#	150
#	14705
#	28955
#	40280
#	53155
#	67517
#	83552
#	100130
#	113022
#	127942
#	141835
#	154442
#	167507
#	181280
#	193630
#	205367
#	220107
#	235582
#	251537
#	265467
#	276477
#	290592
#	303367
#	315867
#	328927
#
# Disc length: 4563 seconds
#
# Revision: 0
# Processed by: cddbd v1.4PL0 Copyright (c) Steve Scherf et al.
# Submitted via: audiograbber 1.81.03
#
DISCID=6811d119
DTITLE=Carson Robison And His Pioneers - Home Sweet Home On The Prairie
DYEAR=1996
DGENRE=Country
TTITLE0=Clementine/Annie Laurie
TTITLE1=Ain't Ya Comin' Out Tonight
TTITLE2=Happy-Go-Lucky
TTITLE3=Goin' To Have A Big Time Tonight
TTITLE4=The Little Green Valley
TTITLE5=Leave The Purty Girls Alone
TTITLE6=When Your Hair Has Turned To Silver
TTITLE7=Missouri Valley
TTITLE8=The Strawberry Roan
TTITLE9=In The Cumberland Mountains
TTITLE10=Ev'rybody's Goin' But Me
TTITLE11=Oh Susannah
TTITLE12=Tree-Top Serenade
TTITLE13=I Was Born In Old Wyoming
TTITLE14=Smoky Mountain Bill
TTITLE15=Swanee Kitchen Door
TTITLE16=Sweet Virginia
TTITLE17=Darling Nellie Gray
TTITLE18=There's A Bridle Hangin' On The Wall
TTITLE19=I'm Leavin' On That Blue River Train
TTITLE20=Ramblin' Cowboy
TTITLE21=I'm An Old Cowhand
TTITLE22=Texas Dan
TTITLE23=With A Banjo On My Knee
TTITLE24=Home Sweet Home On The Prairie
EXTD=
EXTT0=
EXTT1=
EXTT2=
EXTT3=
EXTT4=
EXTT5=
EXTT6=
EXTT7=
EXTT8=
EXTT9=
EXTT10=
EXTT11=
EXTT12=
EXTT13=
EXTT14=
EXTT15=
EXTT16=
EXTT17=
EXTT18=
EXTT19=
EXTT20=
EXTT21=
EXTT22=
EXTT23=
EXTT24=
PLAYORDER=
